<?xml version="1.0" standalone="no"?><!DOCTYPE svg PUBLIC "-//W3C//DTD SVG 1.1//EN" "http://www.w3.org/Graphics/SVG/1.1/DTD/svg11.dtd"><svg t="1594646683131" class="icon" viewBox="0 0 1024 1024" version="1.1" xmlns="http://www.w3.org/2000/svg" p-id="3187" xmlns:xlink="http://www.w3.org/1999/xlink" width="200" height="200"><defs><style type="text/css"></style></defs><path d="M692 692H557v-94c127.6-21.5 225-132.2 225-266 0-149.1-120.9-270-270-270S242 182.9 242 332c0 133.7 97.4 244.5 225 266v94H332c-24.9 0-45 20.1-45 45s20.1 45 45 45h135v135c0 24.9 20.1 45 45 45s45-20.1 45-45V782h135c24.9 0 45-20.1 45-45s-20.1-45-45-45zM332 332c0-99.4 80.6-180 180-180s180 80.6 180 180-80.6 180-180 180-180-80.6-180-180z" fill="#d4237a" p-id="3188"></path></svg>