<?xml version="1.0" standalone="no"?><!DOCTYPE svg PUBLIC "-//W3C//DTD SVG 1.1//EN" "http://www.w3.org/Graphics/SVG/1.1/DTD/svg11.dtd"><svg t="1585570858363" class="icon" viewBox="0 0 1024 1024" version="1.1" xmlns="http://www.w3.org/2000/svg" p-id="2732" xmlns:xlink="http://www.w3.org/1999/xlink" width="200" height="200"><defs><style type="text/css"></style></defs><path d="M506.397399 91.074252c40.774659 0 79.082126 7.737218 114.941845 23.186072 35.8413 15.459087 66.918086 36.347836 93.230358 62.649875 26.962072 26.977421 48.173163 58.207703 63.636343 93.726661 15.44476 35.518958 23.186072 73.671906 23.186072 114.446565 0 55.245232-15.46318 114.936729-46.37112 179.066305-30.92329 64.128553-64.793702 123.493615-101.623515 178.077791-36.843116 54.605665-85.834924 118.070092-147.002029 190.416817-61.170175-72.346725-110.173239-135.811152-147.006122-190.416817-36.843116-54.584176-70.709435-113.949238-101.617375-178.077791-30.92329-64.128553-46.372144-123.82005-46.372144-179.066305 0-40.774659 7.722892-78.927607 23.186072-114.446565 15.443737-35.518958 36.654828-66.74924 63.631226-93.726661 26.304086-26.303063 57.380872-47.191812 93.235474-62.649875C427.300946 98.81147 465.60432 91.074252 506.397399 91.074252L506.397399 91.074252zM506.397399 490.645646c14.462387 0 28.119431-2.788509 40.947598-8.385994 12.824073-5.584182 23.830755-12.978593 33.047674-22.198581 9.865695-9.865695 17.593703-21.212114 23.186072-34.040281 5.583159-12.82305 8.387018-26.466792 8.387018-40.942481 0-14.45727-2.803859-28.119431-8.387018-40.942481-5.592368-12.82919-13.320377-23.832801-23.186072-33.051767-9.215896-9.865695-20.222577-17.419741-33.047674-22.690792-12.828167-5.259794-26.485211-7.895831-40.947598-7.895831-14.470573 0-28.114314 2.636037-40.942481 7.895831-12.824073 5.27105-23.846104 12.824073-33.051767 22.690792-9.865695 9.219989-17.60189 20.227694-23.180955 33.051767-5.597485 12.828167-8.387018 26.485211-8.387018 40.942481 0 14.475689 2.789533 28.119431 8.387018 40.942481 5.579065 12.828167 13.31526 24.174586 23.180955 34.040281 9.205663 9.219989 20.227694 16.619516 33.051767 22.198581C478.277968 487.857137 491.926826 490.645646 506.397399 490.645646L506.397399 490.645646zM506.397399 490.645646" p-id="2733"></path></svg>