<?xml version="1.0" standalone="no"?><!DOCTYPE svg PUBLIC "-//W3C//DTD SVG 1.1//EN" "http://www.w3.org/Graphics/SVG/1.1/DTD/svg11.dtd"><svg t="1585571129601" class="icon" viewBox="0 0 1024 1024" version="1.1" xmlns="http://www.w3.org/2000/svg" p-id="6851" xmlns:xlink="http://www.w3.org/1999/xlink" width="200" height="200"><defs><style type="text/css"></style></defs><path d="M860.16 773.1712A228.6592 228.6592 0 0 1 768 588.8v-153.6a282.112 282.112 0 0 0-204.8-270.9504V128c0-42.3424-34.4576-76.8-76.8-76.8S409.6 85.6576 409.6 128v36.2496A282.112 282.112 0 0 0 204.8 435.2v153.6a228.7616 228.7616 0 0 1-92.16 184.3712 25.6 25.6 0 0 0 15.36 46.08h232.96a128.1536 128.1536 0 0 0 125.3888 153.6 128.1536 128.1536 0 0 0 125.44-153.6h232.96a25.6 25.6 0 0 0 15.36-46.08zM460.8 128a25.6 25.6 0 0 1 51.2 0v26.7776a282.0096 282.0096 0 0 0-51.2 0V128z m102.4 716.8c0 42.3424-34.4576 76.8-76.8 76.8a76.9024 76.9024 0 0 1-72.3968-102.4h144.7936c2.8672 8.192 4.4032 16.8448 4.4032 25.6zM191.5904 768c13.056-15.8208 24.4224-33.0752 33.7408-51.2512A278.272 278.272 0 0 0 256 588.8v-153.6C256 308.1728 359.3728 204.8 486.4 204.8S716.8 308.1728 716.8 435.2v153.6a278.9376 278.9376 0 0 0 64.4096 179.2H191.5392z" fill="" p-id="6852"></path></svg>