<?xml version="1.0" standalone="no"?><!DOCTYPE svg PUBLIC "-//W3C//DTD SVG 1.1//EN" "http://www.w3.org/Graphics/SVG/1.1/DTD/svg11.dtd"><svg t="1594921357722" class="icon" viewBox="0 0 1024 1024" version="1.1" xmlns="http://www.w3.org/2000/svg" p-id="2397" xmlns:xlink="http://www.w3.org/1999/xlink" width="200" height="200"><defs><style type="text/css"></style></defs><path d="M513.788813 938.289925c-113.566274 0-220.223734-44.167967-300.444149-124.388381-80.220415-80.220415-124.388382-186.877876-124.388382-300.44415s44.167967-220.227983 124.388382-300.448398c165.543834-165.548083 435.348714-165.548083 600.892548 0 165.548083 165.548083 165.548083 435.348714 0 600.892548-80.220415 80.220415-186.877876 124.388382-300.44415 124.388381z m0-785.973112c-92.538158 0-185.072066 35.453344-255.379651 105.756681-68.2001 68.204349-105.75668 158.63927-105.756681 255.3839s37.556581 187.175303 105.756681 255.379652c68.204349 68.2001 158.936697 106.054108 255.379651 105.75668 96.74888 0 187.179552-37.556581 255.379652-105.75668 140.912598-140.912598 140.912598-369.850954 0-510.759303-70.303336-70.307585-162.841494-105.75668-255.379652-105.756681z" p-id="2398"></path><path d="M318.672199 341.705826h46.313693c11.047303 0 19.545228 8.497925 19.545228 19.120332v46.313693c0 10.622407-8.497925 19.120332-19.120332 19.120332h-46.738589c-10.622407 0.424896-19.120332-8.073029-19.120332-18.695436v-46.738589c0-10.622407 8.497925-19.120332 19.120332-19.120332zM488.630705 341.705826h46.313693c11.047303 0 19.545228 8.497925 19.545229 19.120332v46.313693c0 10.622407-8.497925 19.120332-19.120332 19.120332h-46.73859c-10.622407 0.424896-19.120332-8.073029-19.120332-18.695436v-46.738589c0-10.622407 8.497925-19.120332 19.120332-19.120332zM658.589212 341.705826h46.313693c11.047303 0 19.545228 8.497925 19.545228 19.120332v46.313693c0 10.622407-8.497925 19.120332-19.120332 19.120332h-46.738589c-10.622407 0.424896-19.120332-8.073029-19.120332-18.695436v-46.738589c0-10.622407 8.497925-19.120332 19.120332-19.120332zM318.672199 469.174705h46.313693c10.622407 0 19.120332 8.497925 19.120332 19.120332v46.313693c0 10.622407-8.497925 19.120332-19.120332 19.120332H318.672199c-10.622407 0.424896-19.120332-8.073029-19.120332-18.695435v-46.73859c0-10.622407 8.497925-19.120332 19.120332-19.120332zM488.630705 469.174705h46.313693c10.622407 0 19.120332 8.497925 19.120332 19.120332v46.313693c0 10.622407-8.497925 19.120332-19.120332 19.120332h-46.313693c-10.622407 0.424896-19.120332-8.073029-19.120332-18.695435v-46.73859c0-10.622407 8.497925-19.120332 19.120332-19.120332zM658.589212 469.174705h46.313693c10.622407 0 19.120332 8.497925 19.120332 19.120332v46.313693c0 10.622407-8.497925 19.120332-19.120332 19.120332h-46.313693c-10.622407 0.424896-19.120332-8.073029-19.120332-18.695435v-46.73859c0-10.622407 8.497925-19.120332 19.120332-19.120332zM458.887967 660.378025h106.224066c17.420747 0 31.86722 14.446473 31.86722 31.86722s-14.446473 31.86722-31.86722 31.86722h-106.224066c-17.420747 0-31.86722-14.446473-31.86722-31.86722s14.446473-31.86722 31.86722-31.86722z" p-id="2399"></path></svg>