<?xml version="1.0" standalone="no"?><!DOCTYPE svg PUBLIC "-//W3C//DTD SVG 1.1//EN" "http://www.w3.org/Graphics/SVG/1.1/DTD/svg11.dtd"><svg t="1594921406636" class="icon" viewBox="0 0 1024 1024" version="1.1" xmlns="http://www.w3.org/2000/svg" p-id="5152" xmlns:xlink="http://www.w3.org/1999/xlink" width="200" height="200"><defs><style type="text/css"></style></defs><path d="M496.974276 917.472016c-225.908864 0-409.710054-183.80119-409.710054-409.710054S271.065412 98.051909 496.974276 98.051909s409.710054 183.80119 409.710054 409.710054S722.883139 917.472016 496.974276 917.472016zM496.974276 157.744784c-192.992126 0-350.017179 157.025053-350.017179 350.017179s157.025053 350.017179 350.017179 350.017179S846.991454 700.754089 846.991454 507.761963 689.966401 157.744784 496.974276 157.744784z" p-id="5153"></path><path d="M585.114544 726.772511c-4.313517 0-8.704947-0.933021-12.844131-2.914959-14.865027-7.092126-21.17996-24.911069-14.087834-39.776096 0.427553-0.913542 43.234506-91.871377 41.408395-176.728542-1.845589-85.245761-48.481043-173.85254-48.947554-174.746603-7.733943-14.554344-2.214707-32.625534 12.338664-40.358504 14.437473-7.714465 32.606056-2.273142 40.358504 12.338664 2.196202 4.119705 53.786016 102.189145 55.943261 201.483783 2.118288 99.314117-45.235923 199.521323-47.23734 203.737447C606.916843 720.516013 596.248461 726.772511 585.114544 726.772511z" p-id="5154"></path><path d="M473.151081 666.982244c-5.537741 0-11.133918-1.534907-16.128208-4.74107-13.87357-8.919211-17.876405-27.398475-8.958168-41.252567 0.13635-0.21329 23.317727-38.026926 23.317727-97.525989 0-59.460107-25.998944-93.25143-26.271643-93.562112-10.376203-12.824652-8.394265-31.614599 4.410909-41.990803 12.86361-10.356725 31.634078-8.355308 41.990803 4.410909 1.612821 2.001417 39.561832 49.80266 39.561832 131.142006 0 77.939371-31.459745 127.742031-32.799867 129.821363C492.563367 662.143781 482.964356 666.982244 473.151081 666.982244z" p-id="5155"></path><path d="M366.200414 603.267056c-3.905442 0-7.888797-0.777193-11.717299-2.409492-15.15623-6.470762-22.190895-24.017006-15.700655-39.173236l0 0c0 0 5.304973-13.174292 5.304973-29.205107 0-14.981898-5.848423-26.426498-5.906859-26.543369-7.539158-14.495909-2.118288-32.528142 12.280228-40.242606 14.359559-7.714465 32.236938-2.604277 40.145214 11.717299 1.341096 2.42897 13.174292 24.735763 13.174292 55.068676 0 28.214625-9.074065 50.269171-10.123957 52.678663C388.818862 596.485612 377.801816 603.267056 366.200414 603.267056z" p-id="5156"></path></svg>